<svg height='100px' width='100px'  fill="#FFFFFF" xmlns="http://www.w3.org/2000/svg" xmlns:xlink="http://www.w3.org/1999/xlink" xml:space="preserve" version="1.1" style="shape-rendering:geometricPrecision;text-rendering:geometricPrecision;image-rendering:optimizeQuality;" viewBox="0 0 322 190" x="0px" y="0px" fill-rule="evenodd" clip-rule="evenodd"><defs><style type="text/css">
   
    .fil1 {fill:#FFFFFF;fill-rule:nonzero}
    .fil0 {fill:#FFFFFF;fill-rule:nonzero}
   
  </style></defs><g><path class="fil0" d="M166 37c0,7 -10,7 -10,0l0 -32c0,-7 10,-7 10,0l0 32z"></path><path class="fil0" d="M124 46c4,6 -5,11 -8,5l-17 -28c-3,-6 6,-11 9,-5l16 28z"></path><path class="fil0" d="M93 74c5,3 0,12 -6,9l-27 -16c-6,-4 -1,-13 5,-9l28 16z"></path><path class="fil0" d="M257 58c6,-4 11,5 6,9l-28 16c-6,3 -11,-6 -5,-9l27 -16z"></path><path class="fil0" d="M214 18c3,-6 12,-1 9,5l-16 28c-4,6 -13,1 -9,-5l16 -28z"></path><path class="fil0" d="M90 115c2,-38 33,-67 71,-67 38,0 69,29 71,67l-9 0c-3,-32 -29,-58 -62,-58 -33,0 -59,26 -62,58l-9 0z"></path><path class="fil0" d="M5 115c-7,0 -7,-10 0,-10l312 0c7,0 7,10 0,10l-312 0z"></path><path class="fil1" d="M30 134c-7,0 -7,-10 0,-10l262 0c7,0 7,10 0,10l-262 0z"></path><path class="fil1" d="M55 153c-6,0 -6,-10 0,-10l212 0c7,0 7,10 0,10l-212 0z"></path><path class="fil1" d="M80 172c-6,0 -6,-10 0,-10l162 0c7,0 7,10 0,10l-162 0z"></path><path class="fil0" d="M105 190c-6,0 -6,-9 0,-9l112 0c6,0 6,9 0,9l-112 0z"></path></g></svg>