<svg height='100px' width='100px'  fill="#FFFFFF" xmlns:dc="http://purl.org/dc/elements/1.1/" xmlns:cc="http://creativecommons.org/ns#" xmlns:rdf="http://www.w3.org/1999/02/22-rdf-syntax-ns#" xmlns:svg="http://www.w3.org/2000/svg" xmlns="http://www.w3.org/2000/svg" xmlns:sodipodi="http://sodipodi.sourceforge.net/DTD/sodipodi-0.dtd" xmlns:inkscape="http://www.inkscape.org/namespaces/inkscape" viewBox="0 0 256 256" version="1.1" x="0px" y="0px"><g><path style="" d="m 123.76554,12.05461 a 5.6512028,5.6512028 0 0 0 -5.6512,5.651211 5.6512028,5.6512028 0 0 0 5.6512,5.6512 5.6512028,5.6512028 0 0 0 5.65121,-5.6512 5.6512028,5.6512028 0 0 0 -5.65121,-5.651211 z m 43.7062,5.902169 a 5.6512028,5.6512028 0 0 0 -5.17484,3.49598 5.6512028,5.6512028 0 0 0 3.06726,7.378869 5.6512028,5.6512028 0 0 0 7.38002,-3.06843 5.6512028,5.6512028 0 0 0 -3.06843,-7.378869 5.6512028,5.6512028 0 0 0 -2.20401,-0.42755 z m -28.83461,1.831062 c -2.63643,0 -4.75891,1.326551 -4.75891,2.97432 v 22.60481 c 0,1.647769 2.12248,2.97432 4.75891,2.97432 2.63644,0 4.75891,-1.326551 4.75891,-2.97432 v -22.60481 c 0,-1.647769 -2.12247,-2.97432 -4.75891,-2.97432 z m -54.845946,2.234227 a 5.6512028,5.6512028 0 0 0 -2.049495,0.37295 5.6512028,5.6512028 0 0 0 -3.260124,7.29753 5.6512028,5.6512028 0 0 0 7.295209,3.260135 5.6512028,5.6512028 0 0 0 3.261289,-7.297541 5.6512028,5.6512028 0 0 0 -3.048674,-3.174154 5.6512028,5.6512028 0 0 0 -2.198205,-0.45892 z m 16.852526,1.80782 c -0.71165,0.02761 -1.480923,0.183315 -2.250482,0.47752 -2.46261,0.941462 -3.970537,2.938607 -3.382128,4.477737 l 8.07248,21.11534 c 0.58843,1.539118 3.04452,2.019649 5.50713,1.078187 2.46261,-0.941462 3.9717,-2.939773 3.38329,-4.478903 l -8.07249,-21.114174 c -0.22066,-0.577163 -0.70333,-1.005023 -1.35122,-1.265239 -0.5399,-0.216852 -1.19492,-0.318101 -1.90658,-0.290468 z m 77.17308,6.826994 c -1.37328,0.01071 -2.48389,0.530513 -2.87672,1.482507 l -8.6232,20.895741 c -0.62854,1.523183 0.82768,3.559219 3.26477,4.564884 2.4371,1.005665 4.90533,0.589064 5.53386,-0.934119 l 8.62204,-20.895741 c 0.62855,-1.523195 -0.82768,-3.559219 -3.26478,-4.564884 -0.91391,-0.377127 -1.832,-0.554636 -2.65597,-0.548388 z m -54.05125,2.812819 c -2.63643,0 -4.7589,1.326551 -4.7589,2.97432 v 19.403927 a 76.142522,76.142522 0 0 0 -17.49038,4.94945 L 94.894916,43.476657 c -0.22066,-0.577176 -0.703535,-1.00613 -1.351221,-1.266418 -0.539748,-0.216899 -1.194003,-0.317053 -1.905428,-0.28929 -0.711425,0.02773 -1.479758,0.183304 -2.249329,0.477509 -2.46261,0.941462 -3.971703,2.938619 -3.383281,4.477748 l 6.945499,18.165405 A 76.142522,76.142522 0 0 0 76.924692,77.245605 l -12.714038,-13.4704 c -0.424147,-0.449364 -1.03431,-0.661728 -1.732311,-0.655278 -1.163347,0.01071 -2.570715,0.628002 -3.769014,1.759027 -1.917304,1.809641 -2.550804,4.230992 -1.419779,5.429291 L 70.636803,84.449036 A 76.142522,76.142522 0 0 0 59.514483,104.41181 L 42.320375,97.405905 c -0.190753,-0.07771 -0.389099,-0.123587 -0.592539,-0.138261 -1.424147,-0.102701 -3.085661,1.286423 -3.956077,3.422796 -0.994765,2.44155 -0.567464,4.90864 0.958515,5.53037 l 17.999273,7.33354 a 76.142522,76.142522 0 0 0 -2.116876,17.47296 76.142522,76.142522 0 0 0 0.09056,2.57115 l -18.520932,0.0825 c -1.647758,0.007 -2.964027,2.13527 -2.952245,4.77167 0.0119,2.63642 1.347472,4.7535 2.995229,4.74613 l 19.391158,-0.0871 A 76.142522,76.142522 0 0 0 60.3858,159.9549 l -17.340496,6.54001 c -1.541748,0.58154 -2.034203,3.03569 -1.103761,5.50249 0.930454,2.46679 2.920899,3.98455 4.462647,3.40304 l 18.196774,-6.86301 a 76.142522,76.142522 0 0 0 12.122666,16.08804 l -13.518038,12.64432 c -1.203344,1.12566 -0.721695,3.58179 1.079354,5.50713 1.801048,1.92537 4.220138,2.56984 5.423483,1.44418 L 83.90614,190.93892 a 76.142522,76.142522 0 0 0 19.91283,11.21178 l -7.080274,17.15925 c -0.628538,1.52318 0.827681,3.55922 3.264784,4.56488 2.43709,1.00567 4.90415,0.58906 5.53269,-0.93412 l 7.41605,-17.97138 a 76.142522,76.142522 0 0 0 17.80291,2.20053 76.142522,76.142522 0 0 0 2.23074,-0.079 v 18.51978 c 0,1.64777 2.12247,2.97432 4.75891,2.97432 2.63643,0 4.7589,-1.32655 4.7589,-2.97432 V 206.2067 a 76.142522,76.142522 0 0 0 17.49038,-4.94945 l 6.62134,17.32075 c 0.58842,1.53912 3.04337,2.01964 5.50597,1.07819 2.46261,-0.94146 3.97171,-2.93861 3.38329,-4.47774 l -6.9455,-18.16541 a 76.142522,76.142522 0 0 0 16.02647,-12.204 l 12.71404,13.47041 c 1.13103,1.19829 3.58403,0.70587 5.50132,-1.10376 1.91729,-1.80964 2.5508,-4.23097 1.41978,-5.42928 l -13.34725,-14.14079 a 76.142522,76.142522 0 0 0 11.12232,-19.96279 l 17.1941,7.00592 c 1.526,0.62171 3.55386,-0.84297 4.54862,-3.28453 0.99476,-2.44157 0.56746,-4.90749 -0.95851,-5.52922 l -17.99928,-7.3347 a 76.142522,76.142522 0 0 0 2.11688,-17.47295 76.142522,76.142522 0 0 0 -0.0907,-2.57117 l 18.52093,-0.0825 c 1.64776,-0.007 2.96403,-2.13529 2.95224,-4.77169 -0.0119,-2.63641 -1.34747,-4.7535 -2.99523,-4.74613 l -19.39115,0.0871 a 76.142522,76.142522 0 0 0 -4.76936,-16.84324 l 17.34049,-6.540016 c 1.54175,-0.581531 2.03422,-3.035692 1.10375,-5.502479 -0.63967,-1.695919 -1.77992,-2.943177 -2.93132,-3.36818 -0.26168,-0.09663 -0.52468,-0.150708 -0.78192,-0.158015 -0.25723,-0.0071 -0.50849,0.03225 -0.74939,0.123159 l -18.19678,6.863005 A 76.142522,76.142522 0 0 0 184.78657,77.429146 l 13.51804,-12.644337 c 1.20334,-1.125658 0.72169,-3.581782 -1.07936,-5.507131 -1.23822,-1.323683 -2.76795,-2.042379 -3.99442,-1.996051 -0.55748,0.02106 -1.05302,0.200108 -1.42906,0.551875 L 177.60406,71.115695 A 76.142522,76.142522 0 0 0 157.69123,59.903907 l 7.08027,-17.159251 c 0.62854,-1.523183 -0.82769,-3.559219 -3.26477,-4.564885 -0.91392,-0.377115 -1.83201,-0.554635 -2.65597,-0.548387 -1.37329,0.01071 -2.48389,0.530525 -2.87673,1.482507 l -7.41605,17.97139 a 76.142522,76.142522 0 0 0 -17.80291,-2.200537 76.142522,76.142522 0 0 0 -2.23074,0.07902 V 36.443997 c 0,-1.647769 -2.12247,-2.97432 -4.75891,-2.97432 z m 85.07826,9.388855 a 5.6512028,5.6512028 0 0 0 -3.96653,1.523171 5.6512028,5.6512028 0 0 0 -0.26722,7.987664 5.6512028,5.6512028 0 0 0 7.98766,0.266072 5.6512028,5.6512028 0 0 0 0.26723,-7.987676 5.6512028,5.6512028 0 0 0 -4.02114,-1.789231 z M 63.902763,42.961971 c -1.163597,0.01071 -2.571868,0.628002 -3.770179,1.759028 -1.917293,1.809628 -2.549639,4.230979 -1.418613,5.42929 l 15.516408,16.438913 c 1.131037,1.198299 3.584031,0.705891 5.501324,-1.10375 1.917293,-1.80964 2.550793,-4.232145 1.41978,-5.430456 L 65.635062,43.616083 C 65.210928,43.16672 64.600919,42.955378 63.902763,42.961971 Z m -15.933509,4.801895 a 5.6512028,5.6512028 0 0 0 -3.959564,1.540606 5.6512028,5.6512028 0 0 0 -0.230049,7.989984 5.6512028,5.6512028 0 0 0 7.987675,0.230049 5.6512028,5.6512028 0 0 0 0.231204,-7.98883 5.6512028,5.6512028 0 0 0 -4.029266,-1.771809 z M 213.38196,58.795564 c -0.55748,0.02106 -1.05302,0.200107 -1.42907,0.551875 l -16.50746,15.443208 c -1.20335,1.125658 -0.7217,3.581782 1.07935,5.507131 1.80106,1.925361 4.21897,2.568668 5.42231,1.44301 l 16.50863,-15.442054 c 1.20334,-1.125658 0.7217,-3.581771 -1.07936,-5.507132 -1.23821,-1.323683 -2.76795,-2.042379 -3.9944,-1.996038 z M 34.360582,78.33311 c -1.349173,0.09913 -2.839928,1.43901 -3.648187,3.422779 -0.994764,2.44157 -0.567453,4.907477 0.958527,5.529219 l 20.934084,8.529078 c 1.52598,0.621719 3.555006,-0.842961 4.549771,-3.284519 0.994764,-2.44157 0.567452,-4.908643 -0.958516,-5.530373 L 35.262177,78.470204 C 34.976053,78.353579 34.671936,78.310213 34.360582,78.33311 Z m 200.014708,0.510044 a 5.6512028,5.6512028 0 0 0 -2.05181,0.363656 5.6512028,5.6512028 0 0 0 -3.29383,7.281273 5.6512028,5.6512028 0 0 0 7.28244,3.293826 5.6512028,5.6512028 0 0 0 3.29383,-7.28244 5.6512028,5.6512028 0 0 0 -3.03474,-3.188089 5.6512028,5.6512028 0 0 0 -2.19589,-0.468226 z M 23.097681,89.091774 a 5.6512028,5.6512028 0 0 0 -5.158577,3.518055 5.6512028,5.6512028 0 0 0 3.100954,7.367242 5.6512028,5.6512028 0 0 0 7.366088,-3.10212 5.6512028,5.6512028 0 0 0 -3.10212,-7.366076 5.6512028,5.6512028 0 0 0 -2.206345,-0.417101 z m 210.808219,6.5249 c -0.25723,-0.0071 -0.50965,0.03225 -0.75054,0.123158 l -21.15019,7.978368 c -1.54175,0.58154 -2.03303,3.03571 -1.10259,5.50249 0.93045,2.46679 2.91973,3.98457 4.46148,3.40304 l 21.15134,-7.97722 c 1.54175,-0.58153 2.03305,-3.03569 1.10259,-5.502475 -0.63967,-1.695919 -1.77877,-2.944343 -2.93017,-3.369346 -0.26168,-0.09663 -0.52468,-0.150697 -0.78192,-0.158015 z m 10.11268,22.263236 a 5.6512028,5.6512028 0 0 0 -5.62564,5.67677 5.6512028,5.6512028 0 0 0 5.67676,5.62563 5.6512028,5.6512028 0 0 0 5.62564,-5.6756 5.6512028,5.6512028 0 0 0 -5.67676,-5.6268 z m -198.979496,0.88881 -22.604809,0.10103 c -1.647758,0.007 -2.964027,2.13644 -2.952245,4.77285 0.0119,2.6364 1.347472,4.75233 2.99523,4.74496 l 22.604809,-0.10103 c 1.647758,-0.007 2.964027,-2.13529 2.952245,-4.7717 -0.0119,-2.6364 -1.347472,-4.75348 -2.99523,-4.74613 z m -27.59841,14.1036 a 5.6512028,5.6512028 0 0 0 -5.625648,5.67561 5.6512028,5.6512028 0 0 0 5.676761,5.6268 5.6512028,5.6512028 0 0 0 5.625649,-5.67676 5.6512028,5.6512028 0 0 0 -5.676762,-5.62565 z m 221.592446,0.7947 -22.60481,0.10104 c -1.64776,0.007 -2.96403,2.13527 -2.95225,4.77169 0.0119,2.63641 1.34748,4.75348 2.99523,4.74612 l 22.60481,-0.10104 c 1.64776,-0.007 2.96403,-2.13644 2.95225,-4.77286 -0.0119,-2.6364 -1.34748,-4.75231 -2.99523,-4.74496 z M 46.895708,149.30776 c -0.256968,-0.007 -0.508485,0.0323 -0.749387,0.12314 l -21.151352,7.97722 c -1.541736,0.58153 -2.033037,3.0357 -1.102583,5.50249 0.930454,2.46679 2.920887,3.98573 4.462635,3.40419 l 21.150185,-7.97837 c 1.541748,-0.58153 2.033037,-3.03569 1.102583,-5.50249 -0.639676,-1.69592 -1.779925,-2.94318 -2.931324,-3.36818 -0.26168,-0.0966 -0.523789,-0.15082 -0.780757,-0.158 z m 191.368272,12.3527 a 5.6512028,5.6512028 0 0 0 -5.15975,3.51922 5.6512028,5.6512028 0 0 0 3.10212,7.36609 5.6512028,5.6512028 0 0 0 7.36493,-3.10097 5.6512028,5.6512028 0 0 0 -3.10096,-7.36723 5.6512028,5.6512028 0 0 0 -2.20634,-0.41711 z m -30.26019,4.44289 c -1.34908,0.0989 -2.83994,1.43786 -3.64819,3.42163 -0.99477,2.44155 -0.56745,4.90863 0.95852,5.53037 l 20.93408,8.52908 c 1.52598,0.62172 3.55501,-0.84412 4.54977,-3.28569 0.99477,-2.44157 0.56747,-4.90749 -0.95851,-5.5292 l -20.93409,-8.52909 c -0.28612,-0.11651 -0.59026,-0.15992 -0.90158,-0.1371 z m -180.753684,5.80688 a 5.6512028,5.6512028 0 0 0 -2.051817,0.36251 5.6512028,5.6512028 0 0 0 -3.293813,7.28242 5.6512028,5.6512028 0 0 0 7.282427,3.29266 5.6512028,5.6512028 0 0 0 3.293826,-7.28126 5.6512028,5.6512028 0 0 0 -3.03474,-3.1881 5.6512028,5.6512028 0 0 0 -2.195883,-0.46823 z m 33.741076,7.85174 c -0.557479,0.0211 -1.051863,0.20011 -1.427907,0.55187 L 43.054661,195.7559 c -1.203357,1.12566 -0.721707,3.58178 1.079341,5.50713 1.801061,1.92536 4.220139,2.56985 5.423483,1.44418 l 16.50746,-15.44322 c 1.203357,-1.12566 0.721707,-3.58178 -1.079341,-5.50714 -1.238226,-1.32368 -2.767966,-2.04121 -3.994422,-1.99488 z m 124.556508,15.04935 c -1.16335,0.0107 -2.57072,0.62685 -3.76901,1.75787 -1.9173,1.80963 -2.5508,4.23214 -1.41978,5.43045 l 15.5164,16.43891 c 1.13104,1.1983 3.5852,0.70474 5.5025,-1.1049 1.91728,-1.80965 2.54963,-4.231 1.41861,-5.42931 L 187.28,195.46544 c -0.42413,-0.44936 -1.0343,-0.66057 -1.73231,-0.65412 z m 28.15494,8.17821 a 5.6512028,5.6512028 0 0 0 -3.95957,1.54061 5.6512028,5.6512028 0 0 0 -0.2312,7.98883 5.6512028,5.6512028 0 0 0 7.98883,0.2312 5.6512028,5.6512028 0 0 0 0.23005,-7.98999 5.6512028,5.6512028 0 0 0 -4.02811,-1.77065 z m -124.429876,0.91785 c -1.373285,0.0107 -2.485043,0.52936 -2.877879,1.48136 l -8.622033,20.89574 c -0.628538,1.52318 0.827681,3.55922 3.264776,4.56488 2.437096,1.00566 4.904157,0.58907 5.532694,-0.93413 l 8.6232,-20.89573 c 0.628537,-1.52319 -0.827693,-3.55922 -3.264777,-4.56488 -0.913912,-0.37713 -1.832001,-0.55347 -2.655981,-0.54724 z m -36.39356,3.98861 a 5.6512028,5.6512028 0 0 0 -3.966526,1.52318 5.6512028,5.6512028 0 0 0 -0.267227,7.98766 5.6512028,5.6512028 0 0 0 7.987664,0.26606 5.6512028,5.6512028 0 0 0 0.267227,-7.98766 5.6512028,5.6512028 0 0 0 -4.021138,-1.78924 z m 102.290956,2.7036 c -0.71132,0.0275 -1.48092,0.18216 -2.25048,0.47637 -2.46261,0.94146 -3.97169,2.93976 -3.3833,4.4789 l 8.07249,21.11416 c 0.58844,1.53913 3.04568,2.01965 5.50829,1.07819 2.46261,-0.94146 3.97055,-2.93861 3.38213,-4.47773 l -8.07248,-21.11533 c -0.22066,-0.57718 -0.7047,-1.00497 -1.35239,-1.26525 -0.53975,-0.2169 -1.19294,-0.3168 -1.90426,-0.28931 z m -32.2969,3.11375 c -2.63644,0 -4.75891,1.32654 -4.75891,2.97432 v 22.60481 c 0,1.64777 2.12247,2.97431 4.75891,2.97431 2.63643,0 4.75891,-1.32654 4.75891,-2.97431 v -22.60481 c 0,-1.64778 -2.12248,-2.97432 -4.75891,-2.97432 z m 54.90985,15.01681 a 5.6512028,5.6512028 0 0 0 -2.04949,0.3718 5.6512028,5.6512028 0 0 0 -3.26129,7.29753 5.6512028,5.6512028 0 0 0 7.29636,3.26013 5.6512028,5.6512028 0 0 0 3.26013,-7.29754 5.6512028,5.6512028 0 0 0 -3.04751,-3.17299 5.6512028,5.6512028 0 0 0 -2.1982,-0.45893 z m -83.842058,4.06529 a 5.6512028,5.6512028 0 0 0 -5.174846,3.49599 5.6512028,5.6512028 0 0 0 3.06843,7.37886 5.6512028,5.6512028 0 0 0 7.378857,-3.06843 5.6512028,5.6512028 0 0 0 -3.067263,-7.37886 5.6512028,5.6512028 0 0 0 -2.205178,-0.42756 z m 43.803798,5.90216 a 5.6512028,5.6512028 0 0 0 -5.65121,5.65121 5.6512028,5.6512028 0 0 0 5.65121,5.6512 5.6512028,5.6512028 0 0 0 5.6512,-5.6512 5.6512028,5.6512028 0 0 0 -5.6512,-5.65121 z" fill="#FFFFFF" stroke="none"></path></g></svg>